<mxfile host="Electron" modified="2023-08-09T03:54:01.361Z" agent="Mozilla/5.0 (Macintosh; Intel Mac OS X 10_15_7) AppleWebKit/537.36 (KHTML, like Gecko) draw.io/21.6.5 Chrome/114.0.5735.243 Electron/25.3.1 Safari/537.36" etag="QwPpY9fCPtWiTPEM90h8" version="21.6.5" type="device">
  <diagram name="Page-1" id="5f0bae14-7c28-e335-631c-24af17079c00">
    <mxGraphModel dx="1026" dy="743" grid="1" gridSize="10" guides="1" tooltips="1" connect="1" arrows="1" fold="1" page="1" pageScale="1" pageWidth="1100" pageHeight="850" background="none" math="0" shadow="0">
      <root>
        <mxCell id="0" />
        <mxCell id="1" parent="0" />
        <mxCell id="NE7UOO0nakm5JGuCrPy9-1" value="" style="shape=actor;whiteSpace=wrap;html=1;" vertex="1" parent="1">
          <mxGeometry x="170" y="80" width="40" height="60" as="geometry" />
        </mxCell>
        <mxCell id="NE7UOO0nakm5JGuCrPy9-2" value="" style="endArrow=classic;html=1;rounded=0;exitX=0.7;exitY=0.042;exitDx=0;exitDy=0;exitPerimeter=0;entryX=-0.023;entryY=0.303;entryDx=0;entryDy=0;entryPerimeter=0;" edge="1" parent="1" source="NE7UOO0nakm5JGuCrPy9-1" target="NE7UOO0nakm5JGuCrPy9-5">
          <mxGeometry relative="1" as="geometry">
            <mxPoint x="210" y="109.5" as="sourcePoint" />
            <mxPoint x="560" y="110" as="targetPoint" />
            <Array as="points" />
          </mxGeometry>
        </mxCell>
        <mxCell id="NE7UOO0nakm5JGuCrPy9-4" value="&lt;font style=&quot;font-size: 18px;&quot;&gt;sends a booking request&lt;/font&gt;" style="edgeLabel;html=1;align=center;verticalAlign=middle;resizable=0;points=[];" vertex="1" connectable="0" parent="NE7UOO0nakm5JGuCrPy9-2">
          <mxGeometry x="-0.0286" y="-2" relative="1" as="geometry">
            <mxPoint as="offset" />
          </mxGeometry>
        </mxCell>
        <mxCell id="NE7UOO0nakm5JGuCrPy9-5" value="" style="sketch=0;aspect=fixed;pointerEvents=1;shadow=0;dashed=0;html=1;strokeColor=none;labelPosition=center;verticalLabelPosition=bottom;verticalAlign=top;align=center;shape=mxgraph.mscae.enterprise.website_generic;fillColor=#7D7D7D;" vertex="1" parent="1">
          <mxGeometry x="660" y="35" width="170.45" height="150" as="geometry" />
        </mxCell>
        <mxCell id="NE7UOO0nakm5JGuCrPy9-6" value="" style="endArrow=classic;html=1;rounded=0;" edge="1" parent="1">
          <mxGeometry relative="1" as="geometry">
            <mxPoint x="790" y="190" as="sourcePoint" />
            <mxPoint x="790" y="520" as="targetPoint" />
          </mxGeometry>
        </mxCell>
        <mxCell id="NE7UOO0nakm5JGuCrPy9-7" value="&lt;font style=&quot;font-size: 18px;&quot;&gt;request from customer&lt;/font&gt;" style="edgeLabel;resizable=0;html=1;align=center;verticalAlign=middle;" connectable="0" vertex="1" parent="NE7UOO0nakm5JGuCrPy9-6">
          <mxGeometry relative="1" as="geometry">
            <mxPoint y="-65" as="offset" />
          </mxGeometry>
        </mxCell>
        <mxCell id="NE7UOO0nakm5JGuCrPy9-9" value="\" style="edgeLabel;resizable=0;html=1;align=right;verticalAlign=bottom;" connectable="0" vertex="1" parent="NE7UOO0nakm5JGuCrPy9-6">
          <mxGeometry x="1" relative="1" as="geometry" />
        </mxCell>
        <mxCell id="TOgFSGIZs1Kmtcr0InVc-1" style="edgeStyle=orthogonalEdgeStyle;rounded=0;orthogonalLoop=1;jettySize=auto;html=1;exitX=0.25;exitY=0.2;exitDx=0;exitDy=0;exitPerimeter=0;" edge="1" parent="1" source="NE7UOO0nakm5JGuCrPy9-10" target="NE7UOO0nakm5JGuCrPy9-5">
          <mxGeometry relative="1" as="geometry">
            <mxPoint x="680" y="270" as="targetPoint" />
            <Array as="points">
              <mxPoint x="770" y="348" />
              <mxPoint x="640" y="348" />
              <mxPoint x="640" y="150" />
              <mxPoint x="670" y="150" />
            </Array>
          </mxGeometry>
        </mxCell>
        <mxCell id="TOgFSGIZs1Kmtcr0InVc-2" value="&lt;span style=&quot;font-size: 18px;&quot;&gt;accepts/decline requests&lt;/span&gt;" style="edgeLabel;html=1;align=center;verticalAlign=middle;resizable=0;points=[];" connectable="0" vertex="1" parent="TOgFSGIZs1Kmtcr0InVc-1">
          <mxGeometry x="0.18" y="2" relative="1" as="geometry">
            <mxPoint as="offset" />
          </mxGeometry>
        </mxCell>
        <mxCell id="NE7UOO0nakm5JGuCrPy9-10" value="" style="shape=actor;whiteSpace=wrap;html=1;" vertex="1" parent="1">
          <mxGeometry x="760" y="510" width="40" height="60" as="geometry" />
        </mxCell>
        <mxCell id="NE7UOO0nakm5JGuCrPy9-11" value="Customer" style="text;html=1;align=center;verticalAlign=middle;resizable=0;points=[];autosize=1;strokeColor=none;fillColor=none;" vertex="1" parent="1">
          <mxGeometry x="110" y="48" width="80" height="30" as="geometry" />
        </mxCell>
        <mxCell id="NE7UOO0nakm5JGuCrPy9-12" value="Merchants" style="text;html=1;align=center;verticalAlign=middle;resizable=0;points=[];autosize=1;strokeColor=none;fillColor=none;" vertex="1" parent="1">
          <mxGeometry x="760" y="588" width="80" height="30" as="geometry" />
        </mxCell>
        <mxCell id="TOgFSGIZs1Kmtcr0InVc-3" value="" style="endArrow=classic;html=1;rounded=0;exitX=-0.012;exitY=0.583;exitDx=0;exitDy=0;exitPerimeter=0;entryX=1;entryY=0.75;entryDx=0;entryDy=0;" edge="1" parent="1" source="NE7UOO0nakm5JGuCrPy9-5" target="NE7UOO0nakm5JGuCrPy9-1">
          <mxGeometry width="50" height="50" relative="1" as="geometry">
            <mxPoint x="330" y="210" as="sourcePoint" />
            <mxPoint x="210" y="230" as="targetPoint" />
          </mxGeometry>
        </mxCell>
        <mxCell id="TOgFSGIZs1Kmtcr0InVc-4" value="&lt;font style=&quot;font-size: 18px;&quot;&gt;updates customers request&lt;/font&gt;" style="edgeLabel;html=1;align=center;verticalAlign=middle;resizable=0;points=[];" connectable="0" vertex="1" parent="TOgFSGIZs1Kmtcr0InVc-3">
          <mxGeometry x="0.2499" y="-3" relative="1" as="geometry">
            <mxPoint as="offset" />
          </mxGeometry>
        </mxCell>
        <mxCell id="TOgFSGIZs1Kmtcr0InVc-5" value="&lt;font style=&quot;font-size: 18px;&quot;&gt;Neon Website&lt;br&gt;&lt;br&gt;&lt;/font&gt;" style="text;html=1;align=center;verticalAlign=middle;resizable=0;points=[];autosize=1;strokeColor=none;fillColor=none;" vertex="1" parent="1">
          <mxGeometry x="800" y="20" width="140" height="60" as="geometry" />
        </mxCell>
        <mxCell id="TOgFSGIZs1Kmtcr0InVc-6" value="1" style="text;html=1;align=center;verticalAlign=middle;resizable=0;points=[];autosize=1;strokeColor=none;fillColor=none;" vertex="1" parent="1">
          <mxGeometry x="275" y="50" width="30" height="30" as="geometry" />
        </mxCell>
        <mxCell id="TOgFSGIZs1Kmtcr0InVc-7" value="2" style="text;html=1;align=center;verticalAlign=middle;resizable=0;points=[];autosize=1;strokeColor=none;fillColor=none;" vertex="1" parent="1">
          <mxGeometry x="785" y="378" width="30" height="30" as="geometry" />
        </mxCell>
        <mxCell id="TOgFSGIZs1Kmtcr0InVc-8" value="3" style="text;html=1;align=center;verticalAlign=middle;resizable=0;points=[];autosize=1;strokeColor=none;fillColor=none;" vertex="1" parent="1">
          <mxGeometry x="660" y="350" width="30" height="30" as="geometry" />
        </mxCell>
        <mxCell id="TOgFSGIZs1Kmtcr0InVc-9" value="4" style="text;html=1;align=center;verticalAlign=middle;resizable=0;points=[];autosize=1;strokeColor=none;fillColor=none;" vertex="1" parent="1">
          <mxGeometry x="505" y="118" width="30" height="30" as="geometry" />
        </mxCell>
      </root>
    </mxGraphModel>
  </diagram>
</mxfile>
